<svg width="9" height="12" viewBox="0 0 9 12" fill="none" xmlns="http://www.w3.org/2000/svg">
<mask id="path-1-inside-1_305_425" fill="white">
<path fill-rule="evenodd" clip-rule="evenodd" d="M0 12H9C9 6 6 0 4.5 0C3 0 0 6 0 12Z"/>
</mask>
<path fill-rule="evenodd" clip-rule="evenodd" d="M0 12H9C9 6 6 0 4.5 0C3 0 0 6 0 12Z" fill="white"/>
<path d="M0 12H-0.3V12.3H0V12ZM9 12V12.3H9.3V12H9ZM0 12.3H9V11.7H0V12.3ZM4.5 0.3C4.59102 0.3 4.73721 0.348444 4.93963 0.506171C5.13706 0.660011 5.35919 0.895581 5.59594 1.21125C6.06868 1.84158 6.57301 2.75523 7.03558 3.86538C7.96045 6.08508 8.7 9.04586 8.7 12H9.3C9.3 8.95414 8.53955 5.91492 7.58942 3.63462C7.11449 2.49477 6.58757 1.53342 6.07594 0.85125C5.8205 0.510669 5.56216 0.230614 5.30842 0.0328912C5.05966 -0.160944 4.78398 -0.3 4.5 -0.3V0.3ZM0.3 12C0.3 9.04586 1.03955 6.08508 1.96442 3.86538C2.42699 2.75523 2.93132 1.84158 3.40406 1.21125C3.64081 0.895581 3.86294 0.660011 4.06037 0.506171C4.26279 0.348444 4.40898 0.3 4.5 0.3V-0.3C4.21602 -0.3 3.94034 -0.160944 3.69158 0.0328912C3.43784 0.230614 3.1795 0.510669 2.92406 0.85125C2.41243 1.53342 1.88551 2.49477 1.41058 3.63462C0.460449 5.91492 -0.3 8.95414 -0.3 12H0.3Z" fill="#DEDEDE" mask="url(#path-1-inside-1_305_425)"/>
</svg>
