<svg width="9" height="2" viewBox="0 0 9 2" fill="none" xmlns="http://www.w3.org/2000/svg">
<mask id="path-1-inside-1_305_264" fill="white">
<path fill-rule="evenodd" clip-rule="evenodd" d="M9 2C9 0.895431 6.98528 0 4.5 0C2.01472 0 0 0.895431 0 2H9Z"/>
</mask>
<path fill-rule="evenodd" clip-rule="evenodd" d="M9 2C9 0.895431 6.98528 0 4.5 0C2.01472 0 0 0.895431 0 2H9Z" fill="#212121"/>
<path d="M9 2V2.3H9.3V2H9ZM0 2H-0.3V2.3H0V2ZM4.5 0.3C5.71071 0.3 6.79238 0.518705 7.56014 0.85993C7.9444 1.03071 8.23678 1.2263 8.42905 1.42833C8.61984 1.62881 8.7 1.82147 8.7 2H9.3C9.3 1.62624 9.12832 1.29277 8.86369 1.01469C8.60053 0.738169 8.23391 0.502791 7.80382 0.311643C6.9429 -0.0709899 5.77457 -0.3 4.5 -0.3V0.3ZM0.3 2C0.3 1.82147 0.380158 1.62881 0.570951 1.42833C0.763215 1.2263 1.0556 1.03071 1.43986 0.85993C2.20762 0.518705 3.28929 0.3 4.5 0.3V-0.3C3.22543 -0.3 2.0571 -0.0709899 1.19618 0.311643C0.766094 0.502791 0.399474 0.738169 0.136314 1.01469C-0.128318 1.29277 -0.3 1.62624 -0.3 2H0.3ZM0 2.3H9V1.7H0V2.3Z" fill="#DEDEDE" mask="url(#path-1-inside-1_305_264)"/>
</svg>
