<svg width="19" height="19" viewBox="0 0 19 19" fill="none" xmlns="http://www.w3.org/2000/svg">
<path fill-rule="evenodd" clip-rule="evenodd" d="M18.5625 9.5C18.5625 14.5051 14.5051 18.5625 9.5 18.5625C4.49492 18.5625 0.4375 14.5051 0.4375 9.5C0.4375 4.49492 4.49492 0.4375 9.5 0.4375C14.5051 0.4375 18.5625 4.49492 18.5625 9.5ZM2.25 9.5C2.25 8.49898 3.06148 7.6875 4.0625 7.6875H7.6875V4.0625C7.6875 3.06148 8.49898 2.25 9.5 2.25C10.501 2.25 11.3125 3.06148 11.3125 4.0625V7.6875H14.9375C15.9385 7.6875 16.75 8.49898 16.75 9.5C16.75 10.501 15.9385 11.3125 14.9375 11.3125H11.3125V14.9375C11.3125 15.9385 10.501 16.75 9.5 16.75C8.49898 16.75 7.6875 15.9385 7.6875 14.9375V11.3125H4.0625C3.06148 11.3125 2.25 10.501 2.25 9.5Z" fill="white"/>
</svg>
