<svg width="13" height="13" viewBox="0 0 13 13" fill="none" xmlns="http://www.w3.org/2000/svg">
<path fill-rule="evenodd" clip-rule="evenodd" d="M12.5563 4.07107C12.9468 3.68054 12.9468 3.04738 12.5563 2.65685L11.1421 1.24264C10.7515 0.852117 10.1184 0.852117 9.72784 1.24264L6.89941 4.07107L4.07099 1.24264C3.68046 0.852117 3.0473 0.852117 2.65677 1.24264L1.24256 2.65685C0.852035 3.04738 0.852036 3.68054 1.24256 4.07107L4.07099 6.89949L1.24256 9.72792C0.852035 10.1184 0.852036 10.7516 1.24256 11.1421L2.65677 12.5563C3.0473 12.9469 3.68046 12.9469 4.07099 12.5563L6.89941 9.72792L9.72784 12.5563C10.1184 12.9469 10.7515 12.9469 11.1421 12.5563L12.5563 11.1421C12.9468 10.7516 12.9468 10.1184 12.5563 9.72792L9.72784 6.8995L12.5563 4.07107Z" fill="#212121"/>
</svg>
