<svg width="13" height="13" viewBox="0 0 13 13" fill="none" xmlns="http://www.w3.org/2000/svg">
<path fill-rule="evenodd" clip-rule="evenodd" d="M12.5564 4.07107C12.9469 3.68054 12.9469 3.04738 12.5564 2.65685L11.1422 1.24264C10.7517 0.852117 10.1185 0.852117 9.72796 1.24264L6.89954 4.07107L4.07111 1.24264C3.68058 0.852117 3.04742 0.852117 2.6569 1.24264L1.24268 2.65685C0.852157 3.04738 0.852158 3.68054 1.24268 4.07107L4.07111 6.89949L1.24268 9.72792C0.852157 10.1184 0.852158 10.7516 1.24268 11.1421L2.6569 12.5563C3.04742 12.9469 3.68058 12.9469 4.07111 12.5563L6.89954 9.72792L9.72796 12.5563C10.1185 12.9469 10.7517 12.9469 11.1422 12.5563L12.5564 11.1421C12.9469 10.7516 12.9469 10.1184 12.5564 9.72792L9.72796 6.8995L12.5564 4.07107Z" fill="#212121"/>
</svg>
