<svg width="22" height="26" viewBox="0 0 22 26" fill="none" xmlns="http://www.w3.org/2000/svg">
<path d="M21.534 17.6146L17.6621 22.0822C16.5648 23.3483 15.2287 24.3857 13.7301 25.1349C12.5924 25.7038 11.3377 26 10.0656 26H5.85714C4.05853 26 2.36488 25.1532 1.28572 23.7143C0.451143 22.6015 0 21.2481 0 19.8571V5.5C0 4.67157 0.671574 4 1.5 4C2.32843 4 3 4.67157 3 5.5V11C3 11.2761 3.22386 11.5 3.5 11.5C3.77614 11.5 4 11.2761 4 11V2.5C4 1.67157 4.67157 1 5.5 1C6.32843 1 7 1.67157 7 2.5V10.5C7 10.7761 7.22386 11 7.5 11C7.77614 11 8 10.7761 8 10.5V1.5C8 0.671573 8.67157 0 9.5 0C10.3284 0 11 0.671573 11 1.5V10.5C11 10.7761 11.2239 11 11.5 11C11.7761 11 12 10.7761 12 10.5V3.5C12 2.67157 12.6716 2 13.5 2C14.3284 2 15 2.67157 15 3.5V17.5181C15 17.9268 15.4636 18.1628 15.7941 17.9225L19.4054 15.2961C20.0357 14.8377 20.9059 14.9059 21.4571 15.4571C22.0447 16.0447 22.0783 16.9866 21.534 17.6146Z" fill="#030089"/>
</svg>
